<?xml version="1.0" encoding="UTF-8" standalone="no"?>
<!-- Created with Inkscape (http://www.inkscape.org/) -->

<svg
   xmlns:dc="http://purl.org/dc/elements/1.1/"
   xmlns:cc="http://creativecommons.org/ns#"
   xmlns:rdf="http://www.w3.org/1999/02/22-rdf-syntax-ns#"
   xmlns:svg="http://www.w3.org/2000/svg"
   xmlns="http://www.w3.org/2000/svg"
   xmlns:xlink="http://www.w3.org/1999/xlink"
   xmlns:sodipodi="http://sodipodi.sourceforge.net/DTD/sodipodi-0.dtd"
   xmlns:inkscape="http://www.inkscape.org/namespaces/inkscape"
   width="744.09448819"
   height="1052.3622047"
   id="svg2"
   version="1.1"
   inkscape:version="0.92.2 (5c3e80d, 2017-08-06)"
   sodipodi:docname="schematic.svg">
  <defs
     id="defs4">
    <marker
       inkscape:stockid="DotL"
       orient="auto"
       refY="0.0"
       refX="0.0"
       id="DotL"
       style="overflow:visible">
      <path
         id="path4565"
         d="M -2.5,-1.0 C -2.5,1.7600000 -4.7400000,4.0 -7.5,4.0 C -10.260000,4.0 -12.5,1.7600000 -12.5,-1.0 C -12.5,-3.7600000 -10.260000,-6.0 -7.5,-6.0 C -4.7400000,-6.0 -2.5,-3.7600000 -2.5,-1.0 z "
         style="fill-rule:evenodd;stroke:#000000;stroke-width:1.0pt"
         transform="scale(0.8) translate(7.4, 1)" />
    </marker>
    <marker
       inkscape:stockid="DotM"
       orient="auto"
       refY="0.0"
       refX="0.0"
       id="DotM"
       style="overflow:visible">
      <path
         id="path4568"
         d="M -2.5,-1.0 C -2.5,1.7600000 -4.7400000,4.0 -7.5,4.0 C -10.260000,4.0 -12.5,1.7600000 -12.5,-1.0 C -12.5,-3.7600000 -10.260000,-6.0 -7.5,-6.0 C -4.7400000,-6.0 -2.5,-3.7600000 -2.5,-1.0 z "
         style="fill-rule:evenodd;stroke:#000000;stroke-width:1.0pt"
         transform="scale(0.4) translate(7.4, 1)" />
    </marker>
    <marker
       inkscape:stockid="DotL"
       orient="auto"
       refY="0"
       refX="0"
       id="DotL-9"
       style="overflow:visible">
      <path
         inkscape:connector-curvature="0"
         id="path4565-9"
         d="m -2.5,-1 c 0,2.76 -2.24,5 -5,5 -2.76,0 -5,-2.24 -5,-5 0,-2.76 2.24,-5 5,-5 2.76,0 5,2.24 5,5 z"
         style="fill-rule:evenodd;stroke:#000000;stroke-width:1pt"
         transform="matrix(0.8,0,0,0.8,5.92,0.8)" />
    </marker>
    <marker
       inkscape:stockid="DotL"
       orient="auto"
       refY="0"
       refX="0"
       id="marker5326"
       style="overflow:visible">
      <path
         inkscape:connector-curvature="0"
         id="path5328"
         d="m -2.5,-1 c 0,2.76 -2.24,5 -5,5 -2.76,0 -5,-2.24 -5,-5 0,-2.76 2.24,-5 5,-5 2.76,0 5,2.24 5,5 z"
         style="fill-rule:evenodd;stroke:#000000;stroke-width:1pt"
         transform="matrix(0.8,0,0,0.8,5.92,0.8)" />
    </marker>
    <marker
       inkscape:stockid="DotL"
       orient="auto"
       refY="0"
       refX="0"
       id="DotL-2"
       style="overflow:visible">
      <path
         inkscape:connector-curvature="0"
         id="path4565-4"
         d="m -2.5,-1 c 0,2.76 -2.24,5 -5,5 -2.76,0 -5,-2.24 -5,-5 0,-2.76 2.24,-5 5,-5 2.76,0 5,2.24 5,5 z"
         style="fill-rule:evenodd;stroke:#000000;stroke-width:1pt"
         transform="matrix(0.8,0,0,0.8,5.92,0.8)" />
    </marker>
    <marker
       inkscape:stockid="DotL"
       orient="auto"
       refY="0"
       refX="0"
       id="marker5358"
       style="overflow:visible">
      <path
         inkscape:connector-curvature="0"
         id="path5360"
         d="m -2.5,-1 c 0,2.76 -2.24,5 -5,5 -2.76,0 -5,-2.24 -5,-5 0,-2.76 2.24,-5 5,-5 2.76,0 5,2.24 5,5 z"
         style="fill-rule:evenodd;stroke:#000000;stroke-width:1pt"
         transform="matrix(0.8,0,0,0.8,5.92,0.8)" />
    </marker>
    <marker
       inkscape:stockid="DotL"
       orient="auto"
       refY="0"
       refX="0"
       id="DotL-7"
       style="overflow:visible">
      <path
         inkscape:connector-curvature="0"
         id="path4565-3"
         d="m -2.5,-1 c 0,2.76 -2.24,5 -5,5 -2.76,0 -5,-2.24 -5,-5 0,-2.76 2.24,-5 5,-5 2.76,0 5,2.24 5,5 z"
         style="fill-rule:evenodd;stroke:#000000;stroke-width:1pt"
         transform="matrix(0.8,0,0,0.8,5.92,0.8)" />
    </marker>
    <marker
       inkscape:stockid="DotL"
       orient="auto"
       refY="0"
       refX="0"
       id="marker5390"
       style="overflow:visible">
      <path
         inkscape:connector-curvature="0"
         id="path5392"
         d="m -2.5,-1 c 0,2.76 -2.24,5 -5,5 -2.76,0 -5,-2.24 -5,-5 0,-2.76 2.24,-5 5,-5 2.76,0 5,2.24 5,5 z"
         style="fill-rule:evenodd;stroke:#000000;stroke-width:1pt"
         transform="matrix(0.8,0,0,0.8,5.92,0.8)" />
    </marker>
    <marker
       inkscape:stockid="DotL"
       orient="auto"
       refY="0"
       refX="0"
       id="DotL-99"
       style="overflow:visible">
      <path
         inkscape:connector-curvature="0"
         id="path4565-44"
         d="m -2.5,-1 c 0,2.76 -2.24,5 -5,5 -2.76,0 -5,-2.24 -5,-5 0,-2.76 2.24,-5 5,-5 2.76,0 5,2.24 5,5 z"
         style="fill-rule:evenodd;stroke:#000000;stroke-width:1pt"
         transform="matrix(0.8,0,0,0.8,5.92,0.8)" />
    </marker>
    <marker
       inkscape:stockid="DotL"
       orient="auto"
       refY="0"
       refX="0"
       id="marker5439"
       style="overflow:visible">
      <path
         inkscape:connector-curvature="0"
         id="path5441"
         d="m -2.5,-1 c 0,2.76 -2.24,5 -5,5 -2.76,0 -5,-2.24 -5,-5 0,-2.76 2.24,-5 5,-5 2.76,0 5,2.24 5,5 z"
         style="fill-rule:evenodd;stroke:#000000;stroke-width:1pt"
         transform="matrix(0.8,0,0,0.8,5.92,0.8)" />
    </marker>
    <marker
       inkscape:stockid="DotL"
       orient="auto"
       refY="0"
       refX="0"
       id="marker5443"
       style="overflow:visible">
      <path
         inkscape:connector-curvature="0"
         id="path5445"
         d="m -2.5,-1 c 0,2.76 -2.24,5 -5,5 -2.76,0 -5,-2.24 -5,-5 0,-2.76 2.24,-5 5,-5 2.76,0 5,2.24 5,5 z"
         style="fill-rule:evenodd;stroke:#000000;stroke-width:1pt"
         transform="matrix(0.8,0,0,0.8,5.92,0.8)" />
    </marker>
    <marker
       inkscape:stockid="DotL"
       orient="auto"
       refY="0"
       refX="0"
       id="marker5447"
       style="overflow:visible">
      <path
         inkscape:connector-curvature="0"
         id="path5449"
         d="m -2.5,-1 c 0,2.76 -2.24,5 -5,5 -2.76,0 -5,-2.24 -5,-5 0,-2.76 2.24,-5 5,-5 2.76,0 5,2.24 5,5 z"
         style="fill-rule:evenodd;stroke:#000000;stroke-width:1pt"
         transform="matrix(0.8,0,0,0.8,5.92,0.8)" />
    </marker>
    <marker
       inkscape:stockid="DotL"
       orient="auto"
       refY="0"
       refX="0"
       id="DotL-3"
       style="overflow:visible">
      <path
         inkscape:connector-curvature="0"
         id="path4565-0"
         d="m -2.5,-1 c 0,2.76 -2.24,5 -5,5 -2.76,0 -5,-2.24 -5,-5 0,-2.76 2.24,-5 5,-5 2.76,0 5,2.24 5,5 z"
         style="fill-rule:evenodd;stroke:#000000;stroke-width:1pt"
         transform="matrix(0.8,0,0,0.8,5.92,0.8)" />
    </marker>
    <marker
       inkscape:stockid="DotL"
       orient="auto"
       refY="0"
       refX="0"
       id="marker5490"
       style="overflow:visible">
      <path
         inkscape:connector-curvature="0"
         id="path5492"
         d="m -2.5,-1 c 0,2.76 -2.24,5 -5,5 -2.76,0 -5,-2.24 -5,-5 0,-2.76 2.24,-5 5,-5 2.76,0 5,2.24 5,5 z"
         style="fill-rule:evenodd;stroke:#000000;stroke-width:1pt"
         transform="matrix(0.8,0,0,0.8,5.92,0.8)" />
    </marker>
    <marker
       inkscape:stockid="DotL"
       orient="auto"
       refY="0"
       refX="0"
       id="marker5494"
       style="overflow:visible">
      <path
         inkscape:connector-curvature="0"
         id="path5496"
         d="m -2.5,-1 c 0,2.76 -2.24,5 -5,5 -2.76,0 -5,-2.24 -5,-5 0,-2.76 2.24,-5 5,-5 2.76,0 5,2.24 5,5 z"
         style="fill-rule:evenodd;stroke:#000000;stroke-width:1pt"
         transform="matrix(0.8,0,0,0.8,5.92,0.8)" />
    </marker>
    <marker
       inkscape:stockid="DotL"
       orient="auto"
       refY="0"
       refX="0"
       id="marker5498"
       style="overflow:visible">
      <path
         inkscape:connector-curvature="0"
         id="path5500"
         d="m -2.5,-1 c 0,2.76 -2.24,5 -5,5 -2.76,0 -5,-2.24 -5,-5 0,-2.76 2.24,-5 5,-5 2.76,0 5,2.24 5,5 z"
         style="fill-rule:evenodd;stroke:#000000;stroke-width:1pt"
         transform="matrix(0.8,0,0,0.8,5.92,0.8)" />
    </marker>
    <marker
       inkscape:stockid="DotL"
       orient="auto"
       refY="0"
       refX="0"
       id="DotL-6"
       style="overflow:visible">
      <path
         inkscape:connector-curvature="0"
         id="path4565-8"
         d="m -2.5,-1 c 0,2.76 -2.24,5 -5,5 -2.76,0 -5,-2.24 -5,-5 0,-2.76 2.24,-5 5,-5 2.76,0 5,2.24 5,5 z"
         style="fill-rule:evenodd;stroke:#000000;stroke-width:1pt"
         transform="matrix(0.8,0,0,0.8,5.92,0.8)" />
    </marker>
    <marker
       inkscape:stockid="DotL"
       orient="auto"
       refY="0"
       refX="0"
       id="marker5541"
       style="overflow:visible">
      <path
         inkscape:connector-curvature="0"
         id="path5543"
         d="m -2.5,-1 c 0,2.76 -2.24,5 -5,5 -2.76,0 -5,-2.24 -5,-5 0,-2.76 2.24,-5 5,-5 2.76,0 5,2.24 5,5 z"
         style="fill-rule:evenodd;stroke:#000000;stroke-width:1pt"
         transform="matrix(0.8,0,0,0.8,5.92,0.8)" />
    </marker>
    <marker
       inkscape:stockid="DotL"
       orient="auto"
       refY="0"
       refX="0"
       id="DotL-4"
       style="overflow:visible">
      <path
         inkscape:connector-curvature="0"
         id="path4565-5"
         d="m -2.5,-1 c 0,2.76 -2.24,5 -5,5 -2.76,0 -5,-2.24 -5,-5 0,-2.76 2.24,-5 5,-5 2.76,0 5,2.24 5,5 z"
         style="fill-rule:evenodd;stroke:#000000;stroke-width:1pt"
         transform="matrix(0.8,0,0,0.8,5.92,0.8)" />
    </marker>
    <marker
       inkscape:stockid="DotL"
       orient="auto"
       refY="0"
       refX="0"
       id="marker5573"
       style="overflow:visible">
      <path
         inkscape:connector-curvature="0"
         id="path5575"
         d="m -2.5,-1 c 0,2.76 -2.24,5 -5,5 -2.76,0 -5,-2.24 -5,-5 0,-2.76 2.24,-5 5,-5 2.76,0 5,2.24 5,5 z"
         style="fill-rule:evenodd;stroke:#000000;stroke-width:1pt"
         transform="matrix(0.8,0,0,0.8,5.92,0.8)" />
    </marker>
    <marker
       inkscape:stockid="DotL"
       orient="auto"
       refY="0"
       refX="0"
       id="DotL-5"
       style="overflow:visible">
      <path
         inkscape:connector-curvature="0"
         id="path4565-90"
         d="m -2.5,-1 c 0,2.76 -2.24,5 -5,5 -2.76,0 -5,-2.24 -5,-5 0,-2.76 2.24,-5 5,-5 2.76,0 5,2.24 5,5 z"
         style="fill-rule:evenodd;stroke:#000000;stroke-width:1pt"
         transform="matrix(0.8,0,0,0.8,5.92,0.8)" />
    </marker>
    <marker
       inkscape:stockid="DotL"
       orient="auto"
       refY="0"
       refX="0"
       id="marker5605"
       style="overflow:visible">
      <path
         inkscape:connector-curvature="0"
         id="path5607"
         d="m -2.5,-1 c 0,2.76 -2.24,5 -5,5 -2.76,0 -5,-2.24 -5,-5 0,-2.76 2.24,-5 5,-5 2.76,0 5,2.24 5,5 z"
         style="fill-rule:evenodd;stroke:#000000;stroke-width:1pt"
         transform="matrix(0.8,0,0,0.8,5.92,0.8)" />
    </marker>
    <marker
       inkscape:stockid="DotL"
       orient="auto"
       refY="0"
       refX="0"
       id="DotL-38"
       style="overflow:visible">
      <path
         inkscape:connector-curvature="0"
         id="path4565-6"
         d="m -2.5,-1 c 0,2.76 -2.24,5 -5,5 -2.76,0 -5,-2.24 -5,-5 0,-2.76 2.24,-5 5,-5 2.76,0 5,2.24 5,5 z"
         style="fill-rule:evenodd;stroke:#000000;stroke-width:1pt"
         transform="matrix(0.8,0,0,0.8,5.92,0.8)" />
    </marker>
    <marker
       inkscape:stockid="DotL"
       orient="auto"
       refY="0"
       refX="0"
       id="marker5637"
       style="overflow:visible">
      <path
         inkscape:connector-curvature="0"
         id="path5639"
         d="m -2.5,-1 c 0,2.76 -2.24,5 -5,5 -2.76,0 -5,-2.24 -5,-5 0,-2.76 2.24,-5 5,-5 2.76,0 5,2.24 5,5 z"
         style="fill-rule:evenodd;stroke:#000000;stroke-width:1pt"
         transform="matrix(0.8,0,0,0.8,5.92,0.8)" />
    </marker>
    <linearGradient
       id="linearGradient8321"
       y2="5162.7002"
       gradientUnits="userSpaceOnUse"
       x2="-1040.4"
       y1="6192.2998"
       x1="-814.52002">
      <stop
         id="stop7922"
         style="stop-color:#000000"
         offset="0" />
      <stop
         id="stop7924"
         style="stop-color:#000000;stop-opacity:0"
         offset="1" />
    </linearGradient>
    <filter
       id="filter7293"
       color-interpolation-filters="sRGB">
      <feGaussianBlur
         id="feGaussianBlur7295"
         stdDeviation="7.7569956" />
    </filter>
    <radialGradient
       inkscape:collect="always"
       xlink:href="#linearGradient7934"
       id="radialGradient5217"
       gradientUnits="userSpaceOnUse"
       gradientTransform="matrix(4.7646,-0.093513,0.057448,2.927,3526.6,-11053)"
       cx="-1022.7"
       cy="5679"
       r="459.57999" />
    <linearGradient
       id="linearGradient7934">
      <stop
         id="stop7936"
         style="stop-color:#ffffff"
         offset="0" />
      <stop
         id="stop7938"
         style="stop-color:#000000"
         offset="1" />
    </linearGradient>
    <linearGradient
       id="linearGradient6018">
      <stop
         id="stop6020"
         style="stop-color:#ffffff"
         offset="0" />
      <stop
         id="stop6022"
         style="stop-color:#000000"
         offset="1" />
    </linearGradient>
    <linearGradient
       id="linearGradient8345"
       y2="6049"
       gradientUnits="userSpaceOnUse"
       x2="-1099.7"
       y1="5665"
       x1="-1103.5">
      <stop
         id="stop8045"
         style="stop-color:#ffffff"
         offset="0" />
      <stop
         id="stop8047"
         style="stop-color:#ffffff;stop-opacity:0"
         offset="1" />
    </linearGradient>
    <linearGradient
       inkscape:collect="always"
       xlink:href="#linearGradient8345"
       id="linearGradient6137"
       gradientUnits="userSpaceOnUse"
       x1="-1103.5"
       y1="5665"
       x2="-1099.7"
       y2="6049" />
    <radialGradient
       inkscape:collect="always"
       xlink:href="#linearGradient7934"
       id="radialGradient6139"
       gradientUnits="userSpaceOnUse"
       gradientTransform="matrix(4.7646,-0.093513,0.057448,2.927,3526.6,-11053)"
       cx="-1022.7"
       cy="5679"
       r="459.57999" />
    <radialGradient
       inkscape:collect="always"
       xlink:href="#linearGradient7934"
       id="radialGradient6141"
       gradientUnits="userSpaceOnUse"
       gradientTransform="matrix(4.7646,-0.093513,0.057448,2.927,3526.6,-11053)"
       cx="-1022.7"
       cy="5679"
       r="459.57999" />
    <linearGradient
       inkscape:collect="always"
       xlink:href="#linearGradient8321"
       id="linearGradient6143"
       gradientUnits="userSpaceOnUse"
       x1="-814.52002"
       y1="6192.2998"
       x2="-1040.4"
       y2="5162.7002" />
    <linearGradient
       id="linearGradient8345-3"
       y2="6049"
       gradientUnits="userSpaceOnUse"
       x2="-1099.7"
       y1="5665"
       x1="-1103.5">
      <stop
         id="stop8045-7"
         style="stop-color:#ffffff"
         offset="0" />
      <stop
         id="stop8047-3"
         style="stop-color:#ffffff;stop-opacity:0"
         offset="1" />
    </linearGradient>
    <radialGradient
       inkscape:collect="always"
       xlink:href="#linearGradient7934-8"
       id="radialGradient6141-2"
       gradientUnits="userSpaceOnUse"
       gradientTransform="matrix(4.7646,-0.093513,0.057448,2.927,3526.6,-11053)"
       cx="-1022.7"
       cy="5679"
       r="459.57999" />
    <linearGradient
       id="linearGradient7934-8">
      <stop
         id="stop7936-4"
         style="stop-color:#ffffff"
         offset="0" />
      <stop
         id="stop7938-9"
         style="stop-color:#000000"
         offset="1" />
    </linearGradient>
    <linearGradient
       id="linearGradient6164">
      <stop
         id="stop6166"
         style="stop-color:#ffffff"
         offset="0" />
      <stop
         id="stop6168"
         style="stop-color:#000000"
         offset="1" />
    </linearGradient>
    <linearGradient
       inkscape:collect="always"
       xlink:href="#linearGradient8321-7"
       id="linearGradient6143-2"
       gradientUnits="userSpaceOnUse"
       x1="-814.52002"
       y1="6192.2998"
       x2="-1040.4"
       y2="5162.7002" />
    <linearGradient
       id="linearGradient8321-7"
       y2="5162.7002"
       gradientUnits="userSpaceOnUse"
       x2="-1040.4"
       y1="6192.2998"
       x1="-814.52002">
      <stop
         id="stop7922-8"
         style="stop-color:#000000"
         offset="0" />
      <stop
         id="stop7924-3"
         style="stop-color:#000000;stop-opacity:0"
         offset="1" />
    </linearGradient>
    <filter
       id="filter7293-6"
       color-interpolation-filters="sRGB">
      <feGaussianBlur
         id="feGaussianBlur7295-9"
         stdDeviation="7.7569956" />
    </filter>
    <marker
       inkscape:stockid="DotL"
       orient="auto"
       refY="0"
       refX="0"
       id="DotL-0"
       style="overflow:visible">
      <path
         inkscape:connector-curvature="0"
         id="path4565-32"
         d="m -2.5,-1 c 0,2.76 -2.24,5 -5,5 -2.76,0 -5,-2.24 -5,-5 0,-2.76 2.24,-5 5,-5 2.76,0 5,2.24 5,5 z"
         style="fill-rule:evenodd;stroke:#000000;stroke-width:1pt"
         transform="matrix(0.8,0,0,0.8,5.92,0.8)" />
    </marker>
    <marker
       inkscape:stockid="DotL"
       orient="auto"
       refY="0"
       refX="0"
       id="marker6354"
       style="overflow:visible">
      <path
         inkscape:connector-curvature="0"
         id="path6356"
         d="m -2.5,-1 c 0,2.76 -2.24,5 -5,5 -2.76,0 -5,-2.24 -5,-5 0,-2.76 2.24,-5 5,-5 2.76,0 5,2.24 5,5 z"
         style="fill-rule:evenodd;stroke:#000000;stroke-width:1pt"
         transform="matrix(0.8,0,0,0.8,5.92,0.8)" />
    </marker>
    <marker
       inkscape:stockid="DotL"
       orient="auto"
       refY="0"
       refX="0"
       id="DotL-47"
       style="overflow:visible">
      <path
         inkscape:connector-curvature="0"
         id="path4565-63"
         d="m -2.5,-1 c 0,2.76 -2.24,5 -5,5 -2.76,0 -5,-2.24 -5,-5 0,-2.76 2.24,-5 5,-5 2.76,0 5,2.24 5,5 z"
         style="fill-rule:evenodd;stroke:#000000;stroke-width:1pt"
         transform="matrix(0.8,0,0,0.8,5.92,0.8)" />
    </marker>
    <marker
       inkscape:stockid="DotL"
       orient="auto"
       refY="0"
       refX="0"
       id="marker6386"
       style="overflow:visible">
      <path
         inkscape:connector-curvature="0"
         id="path6388"
         d="m -2.5,-1 c 0,2.76 -2.24,5 -5,5 -2.76,0 -5,-2.24 -5,-5 0,-2.76 2.24,-5 5,-5 2.76,0 5,2.24 5,5 z"
         style="fill-rule:evenodd;stroke:#000000;stroke-width:1pt"
         transform="matrix(0.8,0,0,0.8,5.92,0.8)" />
    </marker>
    <marker
       inkscape:stockid="DotL"
       orient="auto"
       refY="0"
       refX="0"
       id="DotL-30"
       style="overflow:visible">
      <path
         inkscape:connector-curvature="0"
         id="path4565-7"
         d="m -2.5,-1 c 0,2.76 -2.24,5 -5,5 -2.76,0 -5,-2.24 -5,-5 0,-2.76 2.24,-5 5,-5 2.76,0 5,2.24 5,5 z"
         style="fill-rule:evenodd;stroke:#000000;stroke-width:1pt"
         transform="matrix(0.8,0,0,0.8,5.92,0.8)" />
    </marker>
    <marker
       inkscape:stockid="DotL"
       orient="auto"
       refY="0"
       refX="0"
       id="marker6633"
       style="overflow:visible">
      <path
         inkscape:connector-curvature="0"
         id="path6635"
         d="m -2.5,-1 c 0,2.76 -2.24,5 -5,5 -2.76,0 -5,-2.24 -5,-5 0,-2.76 2.24,-5 5,-5 2.76,0 5,2.24 5,5 z"
         style="fill-rule:evenodd;stroke:#000000;stroke-width:1pt"
         transform="matrix(0.8,0,0,0.8,5.92,0.8)" />
    </marker>
  </defs>
  <sodipodi:namedview
     id="base"
     pagecolor="#ffffff"
     bordercolor="#666666"
     borderopacity="1.0"
     inkscape:pageopacity="0.0"
     inkscape:pageshadow="2"
     inkscape:zoom="1.979899"
     inkscape:cx="410.99638"
     inkscape:cy="874.79797"
     inkscape:document-units="px"
     inkscape:current-layer="layer1"
     showgrid="false"
     inkscape:window-width="1366"
     inkscape:window-height="749"
     inkscape:window-x="0"
     inkscape:window-y="0"
     inkscape:window-maximized="1" />
  <metadata
     id="metadata7">
    <rdf:RDF>
      <cc:Work
         rdf:about="">
        <dc:format>image/svg+xml</dc:format>
        <dc:type
           rdf:resource="http://purl.org/dc/dcmitype/StillImage" />
        <dc:title />
      </cc:Work>
    </rdf:RDF>
  </metadata>
  <g
     inkscape:label="Layer 1"
     inkscape:groupmode="layer"
     id="layer1">
    <g
       id="g7274"
       style="fill:#000000"
       transform="matrix(0.12818002,0,0,0.13574854,533.75938,-493.00446)">
      <path
         id="path7278"
         style="fill:url(#linearGradient6143);filter:url(#filter7293)"
         d="m -1095,5334 c -47.766,0.1338 -97.157,20.778 -125.13,60.508 -4.0243,4.6048 -6.0395,11.331 -9.8338,15.43 -41.822,-2.6621 -86.526,17.875 -105.53,56.37 -3.0872,6.233 -5.3603,12.877 -6.848,19.661 -45.637,-2.731 -94.469,10.106 -126.62,43.875 -18.908,20.154 -27.788,50.71 -18,77.156 6.4723,18.961 20.388,34.668 36.562,46.062 -27.322,30.27 -37.926,75.735 -23.106,114.26 12.363,33.79 40.183,60.253 72.388,75.369 -2.5413,26.761 15.241,51.065 36.688,65.188 38.142,26.141 85.601,34.502 131.16,34.344 28.102,-0.3037 56.232,-4.586 82.75,-13.844 92.907,19.424 189.03,21.833 283.26,11.488 58.857,-7.036 118.47,-18.67 171.58,-45.519 22.652,-11.764 45.831,-28.155 54.562,-53.219 2.3218,-7.3604 2.7984,-15.388 1.5938,-22.969 36.21,-3.5191 66.739,-31.186 79.403,-64.491 18.923,-47.056 6.4402,-107.03 -34.671,-138.36 -13.441,-10.278 -29.878,-16.888 -46.794,-18.119 -1.1,-48.711 -34.358,-93.266 -78.406,-112.53 -5.7825,-3.066 -13.507,-4.7546 -18.531,-7.4687 7.6442,-20.295 -0.86879,-43.708 -16.916,-57.341 -27.484,-25.446 -65.389,-35.192 -101.61,-40.347 -38.465,-4.9551 -78.119,-2.7265 -115.66,7.25 -29.518,-35.541 -76.666,-53.291 -122.28,-52.75 z"
         inkscape:connector-curvature="0" />
    </g>
    <g
       id="g7147"
       style="fill:#ffffff"
       transform="matrix(0.12818002,0,0,0.12818002,533.75938,-443.23124)">
      <path
         id="path7145"
         style="fill:#ffffff"
         d="m -745.77,5460.6 c 0,40.594 -67.421,73.501 -150.59,73.501 -83.167,0 -150.59,-32.908 -150.59,-73.501 0,-40.594 67.421,-73.501 150.59,-73.501 83.167,0 150.59,32.908 150.59,73.501 z m 96.807,365.71 c 0,60.396 -145.28,109.36 -324.48,109.36 -179.21,0 -324.48,-48.96 -324.48,-109.36 0,-60.395 145.28,-109.36 324.48,-109.36 179.21,0 324.48,48.96 324.48,109.36 z m -433.84,21.512 c 0,46.534 -69.026,84.258 -154.17,84.258 -85.148,0 -154.17,-37.723 -154.17,-84.258 0,-46.534 69.026,-84.258 154.17,-84.258 85.148,0 154.17,37.723 154.17,84.258 z m -93.221,-118.32 c 0,66.336 -65.815,120.11 -147,120.11 -81.187,0 -147,-53.776 -147,-120.11 0,-66.336 65.815,-120.11 147,-120.11 81.187,0 147,53.776 147,120.11 z m 251.94,55.19 c 0,49.716 -78.485,90.02 -175.3,90.02 -96.816,0 -175.3,-40.303 -175.3,-90.02 0,-49.717 78.485,-90.02 175.3,-90.02 96.816,0 175.3,40.303 175.3,90.02 z m 281.9,-67.515 c 0,80.462 -102.35,145.69 -228.6,145.69 -126.25,0 -228.6,-65.228 -228.6,-145.69 0,-80.462 102.35,-145.69 228.6,-145.69 126.25,0 228.6,65.228 228.6,145.69 z m -194.25,55.67 c 0,34.017 -119.32,61.592 -266.51,61.592 -147.19,0 -266.51,-27.576 -266.51,-61.592 0,-34.017 119.32,-61.593 266.51,-61.593 147.19,0 266.51,27.576 266.51,61.593 z m -75.806,-158.72 c 0,57.567 -75.834,104.23 -169.38,104.23 -93.546,0 -169.38,-46.667 -169.38,-104.23 0,-57.567 75.834,-104.23 169.38,-104.23 93.546,0 169.38,46.667 169.38,104.23 z m -229.79,71.068 c 0,49.717 -60.455,90.02 -135.03,90.02 -74.575,0 -135.03,-40.303 -135.03,-90.02 0,-49.717 60.455,-90.02 135.03,-90.02 74.575,0 135.03,40.303 135.03,90.02 z m -85.282,-101.86 c 0,48.408 -56.743,87.651 -126.74,87.651 -69.996,0 -126.74,-39.243 -126.74,-87.651 0,-48.408 56.743,-87.651 126.74,-87.651 69.996,0 126.74,39.243 126.74,87.651 z m 87.651,-80.544 c 0,45.792 -43.485,82.913 -97.127,82.913 -53.642,0 -97.127,-37.121 -97.127,-82.913 0,-45.792 43.485,-82.913 97.127,-82.913 53.642,0 97.127,37.121 97.127,82.913 z m 578.02,204.91 c 0,55.604 -38.712,100.68 -86.466,100.68 -47.754,0 -86.466,-45.076 -86.466,-100.68 0,-55.604 38.712,-100.68 86.466,-100.68 47.754,0 86.466,45.076 86.466,100.68 z m -90.02,-106.6 c 0,66.071 -58.334,119.63 -130.29,119.63 -71.958,0 -130.29,-53.561 -130.29,-119.63 0,-66.071 58.334,-119.63 130.29,-119.63 71.958,0 130.29,53.561 130.29,119.63 z m -170.56,-76.991 c 0,69.342 -49.318,125.55 -110.16,125.55 -60.837,0 -110.16,-56.212 -110.16,-125.55 0,-69.342 49.318,-125.55 110.16,-125.55 60.837,0 110.16,56.212 110.16,125.55 z m -135.03,-68.699 c 0,61.492 -60.985,111.34 -136.21,111.34 -75.229,0 -136.21,-49.849 -136.21,-111.34 0,-61.492 60.985,-111.34 136.21,-111.34 75.229,0 136.21,49.849 136.21,111.34 z"
         inkscape:connector-curvature="0" />
    </g>
    <g
       id="g7928"
       style="fill:url(#radialGradient6141)"
       transform="matrix(0.12818002,0,0,0.12818002,533.75938,-443.23124)">
      <path
         id="path7932"
         style="fill:url(#radialGradient6139)"
         d="m -745.77,5460.6 c 0,40.594 -67.421,73.501 -150.59,73.501 -83.167,0 -150.59,-32.908 -150.59,-73.501 0,-40.594 67.421,-73.501 150.59,-73.501 83.167,0 150.59,32.908 150.59,73.501 z m 96.807,365.71 c 0,60.396 -145.28,109.36 -324.48,109.36 -179.21,0 -324.48,-48.96 -324.48,-109.36 0,-60.395 145.28,-109.36 324.48,-109.36 179.21,0 324.48,48.96 324.48,109.36 z m -433.84,21.512 c 0,46.534 -69.026,84.258 -154.17,84.258 -85.148,0 -154.17,-37.723 -154.17,-84.258 0,-46.534 69.026,-84.258 154.17,-84.258 85.148,0 154.17,37.723 154.17,84.258 z m -93.221,-118.32 c 0,66.336 -65.815,120.11 -147,120.11 -81.187,0 -147,-53.776 -147,-120.11 0,-66.336 65.815,-120.11 147,-120.11 81.187,0 147,53.776 147,120.11 z m 251.94,55.19 c 0,49.716 -78.485,90.02 -175.3,90.02 -96.816,0 -175.3,-40.303 -175.3,-90.02 0,-49.717 78.485,-90.02 175.3,-90.02 96.816,0 175.3,40.303 175.3,90.02 z m 281.9,-67.515 c 0,80.462 -102.35,145.69 -228.6,145.69 -126.25,0 -228.6,-65.228 -228.6,-145.69 0,-80.462 102.35,-145.69 228.6,-145.69 126.25,0 228.6,65.228 228.6,145.69 z m -194.25,55.67 c 0,34.017 -119.32,61.592 -266.51,61.592 -147.19,0 -266.51,-27.576 -266.51,-61.592 0,-34.017 119.32,-61.593 266.51,-61.593 147.19,0 266.51,27.576 266.51,61.593 z m -75.806,-158.72 c 0,57.567 -75.834,104.23 -169.38,104.23 -93.546,0 -169.38,-46.667 -169.38,-104.23 0,-57.567 75.834,-104.23 169.38,-104.23 93.546,0 169.38,46.667 169.38,104.23 z m -229.79,71.068 c 0,49.717 -60.455,90.02 -135.03,90.02 -74.575,0 -135.03,-40.303 -135.03,-90.02 0,-49.717 60.455,-90.02 135.03,-90.02 74.575,0 135.03,40.303 135.03,90.02 z m -85.282,-101.86 c 0,48.408 -56.743,87.651 -126.74,87.651 -69.996,0 -126.74,-39.243 -126.74,-87.651 0,-48.408 56.743,-87.651 126.74,-87.651 69.996,0 126.74,39.243 126.74,87.651 z m 87.651,-80.544 c 0,45.792 -43.485,82.913 -97.127,82.913 -53.642,0 -97.127,-37.121 -97.127,-82.913 0,-45.792 43.485,-82.913 97.127,-82.913 53.642,0 97.127,37.121 97.127,82.913 z m 578.02,204.91 c 0,55.604 -38.712,100.68 -86.466,100.68 -47.754,0 -86.466,-45.076 -86.466,-100.68 0,-55.604 38.712,-100.68 86.466,-100.68 47.754,0 86.466,45.076 86.466,100.68 z m -90.02,-106.6 c 0,66.071 -58.334,119.63 -130.29,119.63 -71.958,0 -130.29,-53.561 -130.29,-119.63 0,-66.071 58.334,-119.63 130.29,-119.63 71.958,0 130.29,53.561 130.29,119.63 z m -170.56,-76.991 c 0,69.342 -49.318,125.55 -110.16,125.55 -60.837,0 -110.16,-56.212 -110.16,-125.55 0,-69.342 49.318,-125.55 110.16,-125.55 60.837,0 110.16,56.212 110.16,125.55 z m -135.03,-68.699 c 0,61.492 -60.985,111.34 -136.21,111.34 -75.229,0 -136.21,-49.849 -136.21,-111.34 0,-61.492 60.985,-111.34 136.21,-111.34 75.229,0 136.21,49.849 136.21,111.34 z"
         inkscape:connector-curvature="0" />
    </g>
    <g
       id="g8008"
       style="fill:#ffffff"
       transform="matrix(0.12818002,0,0,0.12818002,533.75938,-443.23124)">
      <path
         id="path8012"
         style="fill:url(#linearGradient6137)"
         d="m -1096.8,5358.6 c -43.088,0.4118 -87.622,21.619 -109.09,59.875 -1.4927,11.594 -14.314,20.465 -25.557,16.148 -37.345,-3.4684 -77.751,19.667 -86.943,57.289 -1.0315,6.85 -0.3188,17.532 -8.8438,19.563 -9.5388,1.4153 -18.906,-2.7877 -28.5,-1.3126 -38.926,0.2499 -80.536,14.72 -103.5,47.406 -13.394,22.593 -5.799,54.437 15.554,69.296 10.75,9.4263 24.131,16.042 37.259,21.766 -40.104,20.759 -60.729,74.154 -41.688,115.91 13.108,28.978 40.08,48.612 68.281,61.688 8.7347,10.39 -1.0375,25.8 7.0937,36.5 12.728,25.332 41.16,36.832 66.74,45.192 49.351,15.195 103.12,11.346 152.04,-3.5362 21.204,-0.6267 41.327,7.7923 62.4,8.8278 116.38,15.772 236.96,9.9016 349.2,-25.698 27.915,-10.107 56.881,-23.194 74.997,-47.567 6.391,-11.313 3.4606,-26.933 -6.7438,-35.104 -6.605,-7.6694 -12.81,-15.77 -16.85,-25.084 24.406,19.879 62.783,18.054 86.094,-2.9375 39.243,-35.406 38.012,-105.6 -2.4688,-139.72 -16.664,-14.264 -41.492,-20.094 -62.188,-11.469 10.791,-37.169 -5.7192,-78.207 -34.322,-102.31 -16.817,-15.001 -38.65,-22.279 -60.471,-26.049 -10.059,-2.0949 -20.169,-3.8834 -29.895,-7.2063 13.068,-2.1899 28.713,-7.7261 32.5,-21.906 4.6662,-14.599 -5.6774,-29.525 -18.2,-36.284 -36.924,-25.508 -83.656,-30.408 -127.55,-30.11 -25.508,1.0286 -50.742,5.955 -74.97,13.769 -23.442,-38.811 -70.176,-57.801 -114.37,-56.937 z"
         inkscape:connector-curvature="0" />
    </g>
    <text
       xml:space="preserve"
       style="font-style:normal;font-variant:normal;font-weight:normal;font-stretch:normal;line-height:0%;font-family:sans-serif;-inkscape-font-specification:Sans;text-align:center;letter-spacing:0px;word-spacing:0px;writing-mode:lr-tb;text-anchor:middle;fill:#000000;fill-opacity:1;stroke:none"
       x="400.68011"
       y="264.72427"
       id="text3896-04-1-3-5-4-7-5-7-1"><tspan
         sodipodi:role="line"
         x="400.68011"
         y="267.84146"
         id="tspan6133"
         style="font-size:14px;line-height:1;font-family:sans-serif" /><tspan
         sodipodi:role="line"
         x="400.68011"
         y="275.36099"
         id="tspan6135"
         style="font-size:14px;line-height:1;font-family:sans-serif">Network</tspan><tspan
         sodipodi:role="line"
         x="400.68011"
         y="281.84146"
         style="font-size:14px;line-height:1;font-family:sans-serif"
         id="tspan1298" /></text>
    <rect
       style="fill:none;stroke:#000000;stroke-opacity:1"
       id="rect2985-5-0-6-7-8-99-3-4-9-80"
       width="153.78574"
       height="93.998543"
       x="206.56348"
       y="147.66422" />
    <text
       xml:space="preserve"
       style="font-style:normal;font-variant:normal;font-weight:normal;font-stretch:normal;line-height:0%;font-family:sans-serif;-inkscape-font-specification:Sans;text-align:center;letter-spacing:0px;word-spacing:0px;writing-mode:lr-tb;text-anchor:middle;fill:#000000;fill-opacity:1;stroke:none"
       x="265.44662"
       y="167.17627"
       id="text3896-04-1-4-3-6-5-9-7-8-9"><tspan
         sodipodi:role="line"
         x="265.44662"
         y="167.17627"
         id="tspan6309"
         style="font-size:14px;line-height:1;font-family:sans-serif">Local Windows</tspan></text>
    <rect
       style="fill:none;stroke:#000000;stroke-opacity:1"
       id="rect2985-5-0-6-7-8-99-3-4-9-80-3"
       width="145.49535"
       height="95.217941"
       x="468.28281"
       y="142.78676"
       ry="1.0101526" />
    <path
       style="fill:none;stroke:#000000;stroke-width:1px;stroke-linecap:butt;stroke-linejoin:miter;stroke-opacity:1;marker-start:url(#DotL);marker-end:url(#DotL)"
       d="m 344.85277,288.78393 -64.157,-0.20922 0.0867,-44.14107"
       id="path3692-3-1-8-7-0"
       inkscape:connector-curvature="0"
       sodipodi:nodetypes="ccc" />
    <path
       style="fill:none;stroke:#000000;stroke-width:1px;stroke-linecap:butt;stroke-linejoin:miter;stroke-opacity:1;marker-start:url(#DotL);marker-end:url(#DotL)"
       d="m 463.00477,288.78291 94.157,-0.20922 -0.0867,-47.7125"
       id="path3692-3-1-8-7-0-9"
       inkscape:connector-curvature="0"
       sodipodi:nodetypes="ccc" />
    <text
       xml:space="preserve"
       style="font-style:normal;font-variant:normal;font-weight:normal;font-stretch:normal;font-size:40px;line-height:0%;font-family:sans-serif;-inkscape-font-specification:'sans-serif, Normal';font-variant-ligatures:normal;font-variant-caps:normal;font-variant-numeric:normal;font-feature-settings:normal;text-align:start;letter-spacing:0px;word-spacing:0px;writing-mode:lr-tb;text-anchor:start;fill:#000000;fill-opacity:1;stroke:none"
       x="212.35475"
       y="180.79591"
       id="text3896-04-1-4-3-6-5-9-7-8-9-1-1"><tspan
         sodipodi:role="line"
         x="212.35475"
         y="180.79591"
         style="font-style:normal;font-variant:normal;font-weight:normal;font-stretch:normal;font-size:10.66666698px;line-height:1;font-family:sans-serif;-inkscape-font-specification:'sans-serif, Normal';font-variant-ligatures:normal;font-variant-caps:normal;font-variant-numeric:normal;font-feature-settings:normal;text-align:start;writing-mode:lr-tb;text-anchor:start"
         id="tspan1364">- Runs FTP server</tspan><tspan
         sodipodi:role="line"
         x="212.35475"
         y="193.74904"
         style="font-style:normal;font-variant:normal;font-weight:normal;font-stretch:normal;font-size:10.66666698px;line-height:1;font-family:sans-serif;-inkscape-font-specification:'sans-serif, Normal';font-variant-ligatures:normal;font-variant-caps:normal;font-variant-numeric:normal;font-feature-settings:normal;text-align:start;writing-mode:lr-tb;text-anchor:start"
         id="tspan1368">- potential new files</tspan><tspan
         sodipodi:role="line"
         x="212.35475"
         y="206.70216"
         style="font-style:normal;font-variant:normal;font-weight:normal;font-stretch:normal;font-size:10.66666698px;line-height:1;font-family:sans-serif;-inkscape-font-specification:'sans-serif, Normal';font-variant-ligatures:normal;font-variant-caps:normal;font-variant-numeric:normal;font-feature-settings:normal;text-align:start;writing-mode:lr-tb;text-anchor:start"
         id="tspan1370">appear in folder nf2rem</tspan><tspan
         sodipodi:role="line"
         x="212.35475"
         y="219.65529"
         style="font-style:normal;font-variant:normal;font-weight:normal;font-stretch:normal;font-size:10.66666698px;line-height:1;font-family:sans-serif;-inkscape-font-specification:'sans-serif, Normal';font-variant-ligatures:normal;font-variant-caps:normal;font-variant-numeric:normal;font-feature-settings:normal;text-align:start;writing-mode:lr-tb;text-anchor:start"
         id="tspan1124">- test environment to</tspan><tspan
         sodipodi:role="line"
         x="212.35475"
         y="232.60841"
         style="font-style:normal;font-variant:normal;font-weight:normal;font-stretch:normal;font-size:10.66666698px;line-height:1;font-family:sans-serif;-inkscape-font-specification:'sans-serif, Normal';font-variant-ligatures:normal;font-variant-caps:normal;font-variant-numeric:normal;font-feature-settings:normal;text-align:start;writing-mode:lr-tb;text-anchor:start"
         id="tspan1126">generate new files in folder</tspan></text>
    <text
       xml:space="preserve"
       style="font-style:normal;font-variant:normal;font-weight:normal;font-stretch:normal;line-height:0%;font-family:sans-serif;-inkscape-font-specification:Sans;text-align:center;letter-spacing:0px;word-spacing:0px;writing-mode:lr-tb;text-anchor:middle;fill:#000000;fill-opacity:1;stroke:none"
       x="524.18384"
       y="157.04706"
       id="text3896-04-1-4-3-6-5-9-7-8-9-7"><tspan
         sodipodi:role="line"
         x="524.18384"
         y="157.04706"
         id="tspan6309-7"
         style="font-size:14px;line-height:1;font-family:sans-serif">Remote Linux</tspan></text>
    <text
       xml:space="preserve"
       style="font-style:normal;font-variant:normal;font-weight:normal;font-stretch:normal;line-height:0%;font-family:sans-serif;-inkscape-font-specification:Sans;text-align:center;letter-spacing:0px;word-spacing:0px;writing-mode:lr-tb;text-anchor:middle;fill:#000000;fill-opacity:1;stroke:none"
       x="412.75528"
       y="113.76134"
       id="text3896-04-1-4-3-6-5-9-7-8-9-6"><tspan
         sodipodi:role="line"
         x="412.75528"
         y="113.76134"
         id="tspan6309-5"
         style="font-size:14px;line-height:1;font-family:sans-serif">&quot;nf2rem&quot; script solution:</tspan><tspan
         sodipodi:role="line"
         x="412.75528"
         y="127.76134"
         style="font-size:14px;line-height:1;font-family:sans-serif"
         id="tspan1277">New Files TO REMote Linux server</tspan></text>
    <text
       xml:space="preserve"
       style="font-style:normal;font-variant:normal;font-weight:normal;font-stretch:normal;line-height:0%;font-family:sans-serif;-inkscape-font-specification:Sans;text-align:center;letter-spacing:0px;word-spacing:0px;writing-mode:lr-tb;text-anchor:middle;fill:#000000;fill-opacity:1;stroke:none"
       x="401.8063"
       y="288.31754"
       id="text3896-04-1-4-3-6-5-9-7-8-9-1-1-8"><tspan
         sodipodi:role="line"
         x="401.8063"
         y="288.31754"
         id="tspan6340-9-1"
         style="font-size:14px;line-height:1;font-family:sans-serif">- <tspan
   style="font-size:10.66666698px"
   id="tspan1234-2"> Permits FTP</tspan></tspan><tspan
         sodipodi:role="line"
         x="401.8063"
         y="299.78497"
         style="font-size:14px;line-height:1;font-family:sans-serif"
         id="tspan1321"><tspan
           style="font-size:10.66666698px"
           id="tspan1323">secure FTP traffic</tspan></tspan></text>
    <text
       xml:space="preserve"
       style="font-style:normal;font-variant:normal;font-weight:normal;font-stretch:normal;font-size:40px;line-height:0%;font-family:sans-serif;-inkscape-font-specification:'sans-serif, Normal';font-variant-ligatures:normal;font-variant-caps:normal;font-variant-numeric:normal;font-feature-settings:normal;text-align:start;letter-spacing:0px;word-spacing:0px;writing-mode:lr-tb;text-anchor:start;fill:#000000;fill-opacity:1;stroke:none"
       x="472.46167"
       y="168.47342"
       id="text3896-04-1-4-3-6-5-9-7-8-9-1-1-85"><tspan
         sodipodi:role="line"
         x="472.46167"
         y="168.47342"
         style="font-style:normal;font-variant:normal;font-weight:normal;font-stretch:normal;font-size:10.66666698px;line-height:1;font-family:sans-serif;-inkscape-font-specification:'sans-serif, Normal';font-variant-ligatures:normal;font-variant-caps:normal;font-variant-numeric:normal;font-feature-settings:normal;text-align:start;writing-mode:lr-tb;text-anchor:start"
         id="tspan1364-0">- Runs mail server</tspan><tspan
         sodipodi:role="line"
         x="472.46167"
         y="181.42654"
         style="font-style:normal;font-variant:normal;font-weight:normal;font-stretch:normal;font-size:10.66666698px;line-height:1;font-family:sans-serif;-inkscape-font-specification:'sans-serif, Normal';font-variant-ligatures:normal;font-variant-caps:normal;font-variant-numeric:normal;font-feature-settings:normal;text-align:start;writing-mode:lr-tb;text-anchor:start"
         id="tspan1368-9">- git clone the scripts</tspan><tspan
         sodipodi:role="line"
         x="472.46167"
         y="194.37967"
         style="font-style:normal;font-variant:normal;font-weight:normal;font-stretch:normal;font-size:10.66666698px;line-height:1;font-family:sans-serif;-inkscape-font-specification:'sans-serif, Normal';font-variant-ligatures:normal;font-variant-caps:normal;font-variant-numeric:normal;font-feature-settings:normal;text-align:start;writing-mode:lr-tb;text-anchor:start"
         id="tspan1396">- run from ~/rafgh/rf2rem</tspan><tspan
         sodipodi:role="line"
         x="472.46167"
         y="207.33279"
         style="font-style:normal;font-variant:normal;font-weight:normal;font-stretch:normal;font-size:10.66666698px;line-height:1;font-family:sans-serif;-inkscape-font-specification:'sans-serif, Normal';font-variant-ligatures:normal;font-variant-caps:normal;font-variant-numeric:normal;font-feature-settings:normal;text-align:start;writing-mode:lr-tb;text-anchor:start"
         id="tspan1128">- entered as daily task</tspan><tspan
         sodipodi:role="line"
         x="472.46167"
         y="220.28592"
         style="font-style:normal;font-variant:normal;font-weight:normal;font-stretch:normal;font-size:10.66666698px;line-height:1;font-family:sans-serif;-inkscape-font-specification:'sans-serif, Normal';font-variant-ligatures:normal;font-variant-caps:normal;font-variant-numeric:normal;font-feature-settings:normal;text-align:start;writing-mode:lr-tb;text-anchor:start"
         id="tspan1130">in crontab</tspan><tspan
         sodipodi:role="line"
         x="472.46167"
         y="233.23904"
         style="font-style:normal;font-variant:normal;font-weight:normal;font-stretch:normal;font-size:10.66666698px;line-height:1;font-family:sans-serif;-inkscape-font-specification:'sans-serif, Normal';font-variant-ligatures:normal;font-variant-caps:normal;font-variant-numeric:normal;font-feature-settings:normal;text-align:start;writing-mode:lr-tb;text-anchor:start"
         id="tspan1370-6">- logs in ~/crologs</tspan></text>
  </g>
</svg>
